<svg width="20" height="20" viewBox="0 0 20 20" fill="none" xmlns="http://www.w3.org/2000/svg">
<path d="M10.0233 1.66679L10.236 1.6707C14.0492 1.79651 17.0956 4.94339 17.0826 8.79399L17.0825 8.87927C17.0391 11.1762 15.8899 13.4378 13.9831 15.4562C13.0424 16.436 11.992 17.3034 10.8527 18.0412L10.861 18.0351L10.8209 18.0691C10.3654 18.3963 9.76191 18.4197 9.28532 18.1392L9.17772 18.0691L9.12745 18.0296L8.78291 17.7977C7.35194 16.8112 6.07752 15.6144 5.00512 14.2508L4.74125 13.9065C3.61774 12.434 2.97986 10.6468 2.91602 8.772L2.91987 8.53458C3.04526 4.70958 6.18249 1.65378 10.0233 1.66679ZM10.0191 2.93134L9.81889 2.93405C6.69545 3.02927 4.18734 5.59363 4.17664 8.75001L4.19255 9.04753C4.30081 10.5313 4.83867 11.9536 5.74632 13.1432C6.87316 14.6527 8.25599 15.9514 9.83157 16.9801L9.90009 17.0318C9.95705 17.0813 10.0415 17.0813 10.0985 17.0318L10.169 16.9788C11.2266 16.2939 12.2018 15.4887 13.0715 14.5827C14.7772 12.7772 15.7855 10.793 15.822 8.8673L15.8193 8.59105C15.7243 5.45797 13.1678 2.94211 10.0191 2.93134ZM9.99929 6.16782C11.4896 6.16782 12.6978 7.3797 12.6978 8.87463C12.6978 10.3696 11.4896 11.5814 9.99929 11.5814C8.50896 11.5814 7.30081 10.3696 7.30081 8.87463C7.30081 7.3797 8.50896 6.16782 9.99929 6.16782ZM9.99929 7.43234C9.20519 7.43234 8.56144 8.07808 8.56144 8.87463C8.56144 9.67118 9.20519 10.3169 9.99929 10.3169C10.7934 10.3169 11.4371 9.67118 11.4371 8.87463C11.4371 8.07808 10.7934 7.43234 9.99929 7.43234Z" fill="#6D7D93"/>
</svg>
