<svg width="24" height="24" viewBox="0 0 24 24" fill="none" xmlns="http://www.w3.org/2000/svg">
<path d="M5.30769 7.88559C5.30769 5.73957 7.06411 3.99988 9.23077 3.99988C11.3974 3.99988 13.1538 5.73957 13.1538 7.88559C13.1538 10.0316 11.3974 11.7713 9.23077 11.7713C7.06411 11.7713 5.30769 10.0316 5.30769 7.88559Z" fill="#1552F0"/>
<path d="M6.75123 13.526L6.91563 13.5C8.44935 13.2576 10.0122 13.2576 11.5459 13.5L11.7103 13.526C13.8714 13.8676 15.4615 15.7139 15.4615 17.8815C15.4615 19.0515 14.504 19.9999 13.3228 19.9999H5.13874C3.95755 19.9999 3 19.0515 3 17.8815C3 15.7139 4.59016 13.8676 6.75123 13.526Z" fill="#1552F0"/>
<path d="M14.7692 3.99988C14.3869 3.99988 14.0769 4.30688 14.0769 4.68559C14.0769 5.0643 14.3869 5.37131 14.7692 5.37131C16.1712 5.37131 17.3077 6.49699 17.3077 7.88559C17.3077 9.27419 16.1712 10.3999 14.7692 10.3999C14.3869 10.3999 14.0769 10.7069 14.0769 11.0856C14.0769 11.4643 14.3869 11.7713 14.7692 11.7713C16.9359 11.7713 18.6923 10.0316 18.6923 7.88559C18.6923 5.73957 16.9359 3.99988 14.7692 3.99988Z" fill="#1552F0"/>
<path d="M15.9149 13.4915C15.5326 13.4915 15.2226 13.7985 15.2226 14.1772C15.2226 14.5559 15.5326 14.8629 15.9149 14.8629H16.8086C16.8829 14.8629 16.9573 14.8687 17.0306 14.8803C18.5197 15.1157 19.6154 16.3879 19.6154 17.8815C19.6154 18.294 19.2778 18.6284 18.8613 18.6284H16.9753C16.5929 18.6284 16.283 18.9355 16.283 19.3142C16.283 19.6929 16.5929 19.9999 16.9753 19.9999H18.8613C20.0425 19.9999 21 19.0515 21 17.8815C21 15.7139 19.4098 13.8676 17.2488 13.526C17.1032 13.503 16.9559 13.4915 16.8086 13.4915H15.9149Z" fill="#1552F0"/>
</svg>
