<svg width="36" height="36" viewBox="0 0 36 36" fill="none" xmlns="http://www.w3.org/2000/svg">
<path d="M24.4184 17.259C24.6164 17.235 24.8039 17.232 24.9779 17.259C25.0769 17.028 25.0949 16.6305 25.0064 16.197C24.8714 15.5535 24.6899 15.165 24.3149 15.228C23.9384 15.288 23.9234 15.753 24.0599 16.3965C24.1349 16.7565 24.2699 17.0655 24.4184 17.259ZM21.1949 17.7675C21.4649 17.8845 21.6299 17.961 21.6914 17.8965C21.7349 17.8545 21.7229 17.7705 21.6584 17.6655C21.4848 17.4168 21.2431 17.2236 20.9624 17.109C20.6624 16.9841 20.3353 16.9386 20.0127 16.977C19.69 17.0153 19.3827 17.1362 19.1204 17.328C18.9419 17.46 18.7724 17.6415 18.7934 17.7525C18.8039 17.787 18.8279 17.8155 18.8909 17.8275C19.0394 17.844 19.5569 17.5815 20.1554 17.5455C20.5784 17.5155 20.9249 17.6475 21.1949 17.7675ZM20.6534 18.075C20.3054 18.1305 20.1119 18.2445 19.9889 18.3555C19.8824 18.4485 19.8194 18.5475 19.8194 18.621L19.8464 18.684L19.9019 18.705C19.9814 18.705 20.1584 18.636 20.1584 18.636C20.6444 18.4635 20.9669 18.483 21.2864 18.519C21.4619 18.54 21.5444 18.549 21.5834 18.489C21.5939 18.471 21.6104 18.4365 21.5729 18.378C21.4889 18.2415 21.1364 18.018 20.6534 18.075ZM23.3294 19.209C23.5679 19.326 23.8289 19.278 23.9144 19.1055C24.0029 18.933 23.8784 18.6975 23.6399 18.582C23.4029 18.4635 23.1404 18.5085 23.0549 18.681C22.9694 18.8535 23.0939 19.092 23.3294 19.209ZM24.8564 17.8725C24.6644 17.8695 24.5054 18.0795 24.4994 18.3465C24.4949 18.612 24.6494 18.828 24.8429 18.8295C25.0364 18.8325 25.1954 18.621 25.1999 18.357C25.2044 18.093 25.0514 17.877 24.8564 17.8725ZM11.8904 22.647C11.8424 22.587 11.7629 22.6035 11.6864 22.6245C11.6324 22.635 11.5724 22.65 11.5079 22.6485C11.4433 22.6498 11.3793 22.6353 11.3215 22.6063C11.2638 22.5773 11.2139 22.5346 11.1764 22.482C11.0879 22.347 11.0924 22.1445 11.1914 21.915L11.2364 21.8115C11.3924 21.465 11.6489 20.883 11.3594 20.3295C11.2647 20.1341 11.1234 19.9651 10.9478 19.8374C10.7723 19.7097 10.5679 19.6273 10.3529 19.5975C10.1496 19.5715 9.94304 19.5943 9.75028 19.6639C9.55753 19.7335 9.38412 19.8481 9.24439 19.998C8.81839 20.4675 8.75389 21.1095 8.83489 21.3375C8.86639 21.4215 8.91439 21.444 8.94739 21.4485C9.01939 21.459 9.12589 21.405 9.19339 21.2235L9.21439 21.1665C9.24439 21.0705 9.29989 20.8905 9.39139 20.7495C9.50418 20.577 9.68085 20.4564 9.88254 20.4142C10.0842 20.3721 10.2944 20.4117 10.4669 20.5245C10.7669 20.721 10.8794 21.087 10.7519 21.4365C10.6859 21.618 10.5794 21.963 10.6019 22.2465C10.6499 22.821 11.0069 23.052 11.3219 23.0805C11.6309 23.091 11.8469 22.9185 11.9024 22.791C11.9339 22.7115 11.9069 22.665 11.8904 22.647Z" fill="black"/>
<path d="M29.7313 21.5955C29.7178 21.552 29.6398 21.2715 29.5363 20.9355L29.3203 20.3595C29.7418 19.725 29.7493 19.161 29.6938 18.84C29.6305 18.4271 29.4346 18.0459 29.1358 17.754C28.8028 17.406 28.1203 17.046 27.1633 16.7775L26.6608 16.638C26.6578 16.6155 26.6338 15.453 26.6143 14.9535C26.5978 14.5935 26.5678 14.0295 26.3923 13.4745C26.1823 12.7215 25.8208 12.0675 25.3663 11.643C26.6188 10.347 27.3988 8.91753 27.3973 7.69203C27.3928 5.33553 24.4978 4.61853 20.9293 6.09753L20.1748 6.41853C20.1718 6.41553 18.8083 5.07753 18.7888 5.06103C14.7178 1.51203 2.00076 15.651 6.06876 19.0845L6.95826 19.836C6.71797 20.4796 6.63267 21.1708 6.70926 21.8535C6.80676 22.8 7.29276 23.7045 8.08176 24.405C8.83176 25.068 9.82026 25.491 10.7758 25.4895C12.3583 29.1375 15.9733 31.3725 20.2123 31.5C24.7603 31.635 28.5763 29.5005 30.1783 25.6665C30.2818 25.398 30.7258 24.186 30.7258 23.1165C30.7243 22.0395 30.1168 21.594 29.7313 21.5955ZM11.1238 24.4635C10.9852 24.4883 10.8445 24.4988 10.7038 24.495C9.32976 24.456 7.84626 23.22 7.69926 21.7545C7.53576 20.1345 8.36376 18.8865 9.83076 18.5925C10.0048 18.555 10.2178 18.5355 10.4458 18.546C11.2678 18.594 12.4768 19.224 12.7543 21.0135C13.0003 22.596 12.6103 24.2115 11.1238 24.4635ZM9.59226 17.6205C8.70044 17.7854 7.90791 18.2911 7.38276 19.0305C7.08726 18.7845 6.53976 18.3105 6.44376 18.1245C5.65776 16.6335 7.30026 13.7325 8.44926 12.0945C11.2828 8.04753 15.7258 4.98603 17.7838 5.53803C18.1168 5.63403 19.2238 6.91953 19.2238 6.91953C19.2238 6.91953 17.1688 8.05803 15.2608 9.64803C12.6943 11.628 10.7518 14.502 9.59226 17.6205ZM24.0088 23.8575C24.0242 23.851 24.0371 23.8395 24.0453 23.8248C24.0534 23.8101 24.0564 23.7931 24.0538 23.7765C24.0528 23.7665 24.0499 23.7568 24.0451 23.7479C24.0404 23.7391 24.0339 23.7313 24.0261 23.725C24.0182 23.7187 24.0092 23.714 23.9995 23.7113C23.9899 23.7085 23.9797 23.7078 23.9698 23.709C23.9698 23.709 21.8188 24.027 19.7863 23.2845C20.0068 22.566 20.5978 22.8225 21.4873 22.896C22.8699 22.9776 24.2565 22.8276 25.5898 22.452C26.5093 22.1865 27.7183 21.666 28.6573 20.925C28.9753 21.6225 29.0863 22.3875 29.0863 22.3875C29.0863 22.3875 29.3308 22.344 29.5363 22.47C29.7313 22.59 29.8723 22.8375 29.7763 23.4765C29.5768 24.6735 29.0698 25.644 28.2133 26.538C27.6803 27.1164 27.0452 27.5913 26.3398 27.939C25.9478 28.1455 25.5394 28.3191 25.1188 28.458C21.8953 29.5095 18.5953 28.353 17.5318 25.8675C17.446 25.6772 17.3748 25.4806 17.3188 25.2795C16.8658 23.6415 17.2498 21.6795 18.4513 20.4405V20.439C18.5278 20.361 18.6043 20.2695 18.6043 20.1525C18.6043 20.0565 18.5413 19.953 18.4888 19.878C18.0688 19.269 16.6093 18.2295 16.9033 16.218C17.1118 14.772 18.3763 13.755 19.5553 13.815L19.8553 13.833C20.3653 13.863 20.8108 13.9275 21.2308 13.947C21.9358 13.9755 22.5673 13.8735 23.3173 13.2495C23.5708 13.0365 23.7733 12.855 24.1153 12.798C24.1513 12.789 24.2413 12.7605 24.4198 12.7665C24.6028 12.7739 24.7805 12.8304 24.9343 12.93C25.5343 13.329 25.6198 14.298 25.6528 15.0075C25.6708 15.411 25.7203 16.3905 25.7353 16.6695C25.7743 17.3115 25.9438 17.403 26.2828 17.514C26.4763 17.58 26.6548 17.625 26.9173 17.7015C27.7108 17.922 28.1848 18.1515 28.4818 18.441C28.6357 18.5901 28.735 18.7867 28.7638 18.999C28.8613 19.6845 28.2343 20.5305 26.5813 21.2985C24.7723 22.137 22.5778 22.35 21.0628 22.1805L20.5318 22.1205C19.3168 21.9585 18.6283 23.5245 19.3558 24.597C19.8253 25.2885 21.1018 25.7385 22.3813 25.7385C25.3108 25.7415 27.5638 24.4905 28.4038 23.4075L28.4698 23.313C28.5088 23.25 28.4773 23.2185 28.4248 23.2515C27.7423 23.7195 24.7003 25.5795 21.4483 25.0215C21.4483 25.0215 21.0523 24.9555 20.6923 24.8145C20.4073 24.7065 19.8058 24.4275 19.7338 23.8125C22.3543 24.627 24.0088 23.859 24.0088 23.8575ZM14.8288 12.0795C15.8368 10.9155 17.0773 9.90153 18.1903 9.33453C18.2278 9.31353 18.2683 9.35703 18.2473 9.39153C18.1107 9.63097 18.0059 9.88711 17.9353 10.1535C17.9263 10.194 17.9698 10.227 18.0043 10.2015C18.6973 9.73053 19.9003 9.22503 20.9563 9.16203C20.9665 9.16026 20.9771 9.16211 20.9862 9.16727C20.9952 9.17243 21.0022 9.18058 21.0059 9.19032C21.0097 9.20007 21.0099 9.2108 21.0066 9.22068C21.0032 9.23057 20.9966 9.239 20.9878 9.24453C20.8128 9.37875 20.6564 9.53562 20.5228 9.71103C20.5018 9.74103 20.5213 9.78453 20.5588 9.78453C21.2998 9.78903 22.3453 10.047 23.0248 10.4295C23.0698 10.4565 23.0368 10.545 22.9873 10.533C21.9553 10.2975 20.2708 10.1175 18.5188 10.545C16.9528 10.926 15.7588 11.514 14.8903 12.1485C14.8453 12.1785 14.7928 12.12 14.8288 12.0795Z" fill="black"/>
</svg>
