<svg width="24" height="24" viewBox="0 0 24 24" fill="none" xmlns="http://www.w3.org/2000/svg">
<path fill-rule="evenodd" clip-rule="evenodd" d="M12 19C15.866 19 19 15.866 19 12C19 8.13401 15.866 5 12 5C8.13401 5 5 8.13401 5 12C5 15.866 8.13401 19 12 19ZM13.2497 15.5936L13.3615 15.1367C13.3037 15.1638 13.2104 15.1949 13.0825 15.2302C12.9542 15.2656 12.8388 15.2836 12.7373 15.2836C12.5212 15.2836 12.3691 15.2482 12.2807 15.177C12.193 15.1058 12.1493 14.9718 12.1493 14.7757C12.1493 14.6979 12.1625 14.5821 12.1901 14.4304C12.2168 14.2778 12.2476 14.1421 12.2818 14.0235L12.6991 12.5461C12.74 12.4105 12.768 12.2615 12.7831 12.0988C12.7985 11.9364 12.8056 11.8229 12.8056 11.7584C12.8056 11.4469 12.6964 11.1941 12.478 10.999C12.2595 10.8042 11.9484 10.7067 11.5452 10.7067C11.3209 10.7067 11.0837 10.7466 10.8327 10.8262C10.5817 10.9057 10.3193 11.0014 10.0447 11.1132L9.93265 11.5705C10.0145 11.5402 10.1119 11.5077 10.2259 11.474C10.3394 11.4404 10.4507 11.4231 10.5591 11.4231C10.7803 11.4231 10.9293 11.4608 11.0073 11.5351C11.0854 11.6096 11.1246 11.7421 11.1246 11.9315C11.1246 12.0362 11.1122 12.1526 11.0865 12.2791C11.0611 12.4064 11.0294 12.5409 10.9921 12.683L10.5731 14.1663C10.5358 14.3222 10.5085 14.4616 10.4914 14.5854C10.4744 14.7091 10.4662 14.8305 10.4662 14.9485C10.4662 15.2534 10.5789 15.5047 10.8041 15.703C11.0293 15.9006 11.3451 16 11.751 16C12.0154 16 12.2474 15.9654 12.4471 15.896C12.6465 15.8267 12.9144 15.726 13.2497 15.5936ZM13.1754 9.59223C13.3703 9.41147 13.4674 9.19164 13.4674 8.93424C13.4674 8.67742 13.3705 8.45716 13.1754 8.27411C12.9809 8.09156 12.7466 8 12.4725 8C12.1976 8 11.9623 8.09135 11.766 8.27411C11.5697 8.45716 11.4713 8.67734 11.4713 8.93424C11.4713 9.19164 11.5697 9.4114 11.766 9.59223C11.9627 9.77363 12.1976 9.8644 12.4725 9.8644C12.7466 9.8644 12.9809 9.77363 13.1754 9.59223Z" fill="#989CAE"/>
</svg>
