<svg width="28" height="28" viewBox="0 0 28 28" fill="none" xmlns="http://www.w3.org/2000/svg">
<path d="M28 14C28 6.26804 21.732 3.05176e-05 14 3.05176e-05C6.26801 3.05176e-05 0 6.26804 0 14C0 20.9878 5.1196 26.7797 11.8125 27.83V18.0469H8.25781V14H11.8125V10.9157C11.8125 7.40691 13.9026 5.46878 17.1005 5.46878C18.6322 5.46878 20.2344 5.74222 20.2344 5.74222V9.18753H18.469C16.7299 9.18753 16.1875 10.2667 16.1875 11.3739V14H20.0703L19.4496 18.0469H16.1875V27.83C22.8804 26.7797 28 20.9878 28 14Z" fill="#1877F2"/>
<path d="M19.4496 18.0469L20.0703 14.0001H16.1875V11.3739C16.1875 10.2667 16.7299 9.18756 18.469 9.18756H20.2344V5.74225C20.2344 5.74225 18.6322 5.46881 17.1005 5.46881C13.9026 5.46881 11.8125 7.40694 11.8125 10.9157V14.0001H8.25781V18.0469H11.8125V27.83C12.5253 27.9418 13.2558 28.0001 14 28.0001C14.7442 28.0001 15.4747 27.9418 16.1875 27.83V18.0469H19.4496Z" fill="white"/>
</svg>
