<svg width="42" height="42" viewBox="0 0 42 42" fill="none" xmlns="http://www.w3.org/2000/svg">
<g clip-path="url(#clip0)">
<path d="M20.833 1.38361C31.5752 1.38361 40.2666 10.075 40.2666 20.8009C40.2666 31.5268 31.5752 40.2345 20.833 40.2345C10.0908 40.2345 1.39941 31.5431 1.39941 20.8172C1.39941 10.0913 10.0908 1.38361 20.833 1.38361Z" fill="#E74D89"/>
<path d="M20.8333 41.6178C9.34245 41.6178 0 32.2917 0 20.8171C0 9.32617 9.34245 0 20.8333 0C32.3242 0 41.6667 9.32617 41.6667 20.8008C41.6667 32.2754 32.3242 41.6178 20.8333 41.6178ZM38.3952 23.6491C37.793 23.4538 32.8939 22.0052 27.3112 22.8841C29.6387 29.2643 30.5827 34.4727 30.7617 35.5469C34.7656 32.8613 37.6139 28.597 38.3952 23.6491ZM27.7832 37.1908C27.5228 35.6283 26.4811 30.1921 23.9909 23.7142C23.9583 23.7305 23.9095 23.7467 23.877 23.7467C13.8346 27.2461 10.2376 34.196 9.91211 34.847C12.9232 37.1908 16.7155 38.5905 20.8333 38.5905C23.291 38.6068 25.651 38.1022 27.7832 37.1908ZM7.61719 32.7148C8.02409 32.0312 12.9069 23.9583 22.0866 20.9798C22.3145 20.8984 22.5586 20.8333 22.7865 20.7682C22.347 19.7591 21.8587 18.75 21.3379 17.7572C12.4512 20.4102 3.82487 20.2962 3.04362 20.2799C3.04362 20.459 3.02734 20.638 3.02734 20.8171C3.04362 25.3906 4.76888 29.5573 7.61719 32.7148ZM3.41797 17.1875C4.21549 17.2038 11.5397 17.2363 19.873 15.0228C16.9271 9.7819 13.737 5.38737 13.2812 4.7526C8.2845 7.09635 4.57357 11.6862 3.41797 17.1875ZM16.6667 3.54818C17.1549 4.19922 20.3939 8.59375 23.3073 13.9486C29.6387 11.5723 32.3079 7.99154 32.6335 7.53581C29.4922 4.7526 25.3581 3.0599 20.8333 3.0599C19.401 3.0599 18.0013 3.23893 16.6667 3.54818ZM34.6029 9.58659C34.2285 10.0911 31.25 13.916 24.6745 16.6016C25.0814 17.4479 25.4883 18.3105 25.8626 19.1732C25.9928 19.4824 26.123 19.7917 26.2533 20.0846C32.1777 19.3359 38.0534 20.5404 38.6393 20.6543C38.5905 16.4714 37.0931 12.6139 34.6029 9.58659Z" fill="#B2215A"/>
</g>
<defs>
<clipPath id="clip0">
<rect width="41.6667" height="41.6667" fill="white"/>
</clipPath>
</defs>
</svg>
