<svg width="28" height="28" viewBox="0 0 28 28" fill="none" xmlns="http://www.w3.org/2000/svg">
<path d="M13.9992 0.0460968C6.29099 0.0460968 0.0419922 6.29493 0.0419922 14.0031C0.0419922 21.7116 6.29099 27.9599 13.9992 27.9599C21.7082 27.9599 27.9565 21.7116 27.9565 14.0031C27.9565 6.29543 21.7082 0.0467635 13.999 0.0467635L13.9992 0.0460968ZM20.3998 20.1761C20.1498 20.5861 19.6132 20.7161 19.2032 20.4644C15.9262 18.4628 11.8008 18.0094 6.94249 19.1194C6.47433 19.2261 6.00766 18.9328 5.90099 18.4644C5.79383 17.9961 6.08599 17.5294 6.55533 17.4228C11.872 16.2076 16.4325 16.7311 20.1115 18.9794C20.5215 19.2311 20.6515 19.7661 20.3998 20.1761ZM22.1082 16.3753C21.7932 16.8878 21.1232 17.0494 20.6115 16.7344C16.8598 14.4279 11.141 13.7601 6.70349 15.1071C6.12799 15.2809 5.52016 14.9566 5.34549 14.3821C5.17216 13.8066 5.49666 13.1999 6.07116 13.0249C11.14 11.4869 17.4415 12.2319 21.7498 14.8794C22.2615 15.1944 22.4232 15.8644 22.1082 16.3754V16.3753ZM22.2548 12.4179C17.7565 9.7461 10.3348 9.50043 6.03999 10.8039C5.35033 11.0131 4.62099 10.6238 4.41199 9.9341C4.20299 9.2441 4.59199 8.51526 5.28216 8.3056C10.2123 6.80893 18.4082 7.0981 23.5872 10.1726C24.2088 10.5408 24.4122 11.3419 24.0438 11.9614C23.6772 12.5818 22.8738 12.7863 22.2555 12.4179H22.2548Z" fill="#1ED760"/>
</svg>
