<svg width="24" height="28" viewBox="0 0 24 28" fill="none" xmlns="http://www.w3.org/2000/svg">
<g clip-path="url(#clip0)">
<path d="M20.1345 2.17932C18.8426 0.706821 16.5073 0.0755234 13.5197 0.0755234H4.84897C4.55338 0.0755343 4.26749 0.180991 4.0427 0.372933C3.81791 0.564875 3.66896 0.830711 3.62263 1.12265L0.0122986 24.0203C-0.059463 24.4718 0.290166 24.8806 0.747809 24.8806H6.10082L7.44519 16.3535L7.40347 16.6206C7.49924 16.0178 8.01474 15.5732 8.62517 15.5732H11.1689C16.1661 15.5732 20.0789 13.5435 21.2219 7.67196C21.2559 7.4983 21.2853 7.32929 21.3107 7.16416C21.1664 7.08776 21.1664 7.08776 21.3107 7.16416C21.651 4.99397 21.3083 3.51674 20.1345 2.17932Z" fill="#27346A"/>
<path d="M9.49345 6.38238C9.6398 6.3127 9.79986 6.27659 9.96194 6.27669H16.7596C17.5646 6.27669 18.3154 6.32907 19.0015 6.4395C19.1935 6.47011 19.3845 6.50666 19.5742 6.54909C19.8431 6.60842 20.1089 6.68105 20.3706 6.76669C20.7079 6.87934 21.022 7.01053 21.3108 7.16416C21.651 4.99314 21.3083 3.51674 20.1345 2.17932C18.8418 0.706821 16.5073 0.0755234 13.5197 0.0755234H4.84823C4.2377 0.0755234 3.71831 0.52 3.62263 1.12265L0.0122991 24.0194C-0.0594625 24.4717 0.290167 24.88 0.747067 24.88H6.10082L8.88997 7.19272C8.91739 7.01886 8.98665 6.85428 9.09177 6.71312C9.1969 6.57197 9.33474 6.45846 9.49345 6.38238Z" fill="#27346A"/>
<path d="M21.2226 7.67221C20.0796 13.5429 16.1669 15.5735 11.1696 15.5735H8.62513C8.01469 15.5735 7.4991 16.0181 7.40426 16.6208L5.73177 27.2233C5.66928 27.6184 5.97486 27.9765 6.37465 27.9765H10.8871C11.1456 27.9764 11.3956 27.8841 11.5921 27.7162C11.7886 27.5483 11.9188 27.3158 11.9592 27.0604L12.0031 26.8305L12.8536 21.4404L12.9084 21.1425C12.9488 20.8872 13.0789 20.6547 13.2754 20.4868C13.4719 20.3189 13.7219 20.2266 13.9804 20.2265H14.6557C19.0269 20.2265 22.4497 18.4506 23.4499 13.3146C23.8674 11.1682 23.6514 9.37622 22.547 8.11752C22.212 7.73627 21.796 7.42141 21.3114 7.16441C21.2851 7.33037 21.2567 7.49855 21.2226 7.67221Z" fill="#2790C3"/>
<path d="M20.1145 6.68731C19.9363 6.63527 19.7564 6.5892 19.5751 6.54917C19.3853 6.50743 19.1943 6.47113 19.0024 6.44032C18.3156 6.32915 17.5653 6.27668 16.7596 6.27668H9.96277C9.80056 6.27631 9.64038 6.31273 9.49428 6.38321C9.3354 6.45905 9.19739 6.57248 9.09222 6.71368C8.98705 6.85488 8.91788 7.01958 8.89071 7.19354L7.44602 16.3536L7.4043 16.6206C7.49933 16.0179 8.01483 15.5733 8.62536 15.5733H11.1698C16.167 15.5733 20.0798 13.5436 21.2228 7.67204C21.2568 7.49838 21.2853 7.33011 21.3116 7.16424C21.0221 7.01144 20.7088 6.87942 20.3715 6.76751C20.2863 6.73929 20.2007 6.71255 20.1146 6.68731" fill="#1F264F"/>
</g>
<defs>
<clipPath id="clip0">
<rect width="23.7351" height="28" fill="white"/>
</clipPath>
</defs>
</svg>
