<svg width="28" height="28" viewBox="0 0 28 28" fill="none" xmlns="http://www.w3.org/2000/svg">
<path d="M5.88912 17.6443C5.88912 19.2665 4.57804 20.5777 2.95579 20.5777C1.33354 20.5777 0.0224609 19.2665 0.0224609 17.6443C0.0224609 16.0221 1.33354 14.711 2.9559 14.711H5.88901V17.6444L5.88912 17.6443ZM7.35584 17.6443C7.35584 16.0221 8.66691 14.711 10.2892 14.711C11.9114 14.711 13.2225 16.0221 13.2225 17.6444V24.9776C13.2225 26.5999 11.9114 27.9111 10.2891 27.9111C8.66702 27.9111 7.35584 26.5999 7.35584 24.9776V17.6444V17.6443Z" fill="#E01E5A"/>
<path d="M10.2889 5.86666C8.66666 5.86666 7.35547 4.55558 7.35547 2.93333C7.35547 1.31108 8.66677 0 10.2889 0C11.911 0 13.2222 1.31108 13.2222 2.93333V5.86677H10.2888L10.2889 5.86666ZM10.2889 7.35558C11.9112 7.35558 13.2222 8.66666 13.2222 10.2889C13.2222 11.9112 11.9112 13.2222 10.2888 13.2222H2.93344C1.31108 13.2222 0 11.9112 0 10.2888C0 8.66677 1.31108 7.35558 2.93333 7.35558H10.2888H10.2889Z" fill="#36C5F0"/>
<path d="M22.0443 10.2889C22.0443 8.66666 23.3554 7.35547 24.9775 7.35547C26.5998 7.35547 27.911 8.66666 27.911 10.2889C27.911 11.9112 26.5998 13.2222 24.9775 13.2222H22.0443V10.2888V10.2889ZM20.5776 10.2889C20.5776 11.9112 19.2664 13.2222 17.6442 13.2222C16.022 13.2222 14.7109 11.9112 14.7109 10.2888V2.93344C14.7109 1.31108 16.022 0 17.6442 0C19.2663 0 20.5775 1.31108 20.5775 2.93333V10.2888L20.5776 10.2889Z" fill="#2EB67D"/>
<path d="M17.6442 22.0444C19.2664 22.0444 20.5776 23.3555 20.5776 24.9776C20.5776 26.5999 19.2664 27.9111 17.6442 27.9111C16.022 27.9111 14.7109 26.5999 14.7109 24.9776V22.0444H17.6443H17.6442ZM17.6442 20.5777C16.022 20.5777 14.7109 19.2665 14.7109 17.6443C14.7109 16.0221 16.022 14.711 17.6443 14.711H24.9997C26.622 14.711 27.9332 16.0221 27.9332 17.6444C27.9332 19.2665 26.622 20.5777 24.9997 20.5777H17.6443H17.6442Z" fill="#ECB22E"/>
</svg>
